<?xml version="1.0" standalone="no"?><!DOCTYPE svg PUBLIC "-//W3C//DTD SVG 1.1//EN" "http://www.w3.org/Graphics/SVG/1.1/DTD/svg11.dtd"><svg t="1532217268752" class="icon" style="" viewBox="0 0 1024 1024" version="1.1" xmlns="http://www.w3.org/2000/svg" p-id="995" xmlns:xlink="http://www.w3.org/1999/xlink" width="64" height="64"><defs><style type="text/css"></style></defs><path d="M774.3 630.6c0.5 0.4 1 0.9 1.5 1.3-6.1 8-10.2 17.6-19.2 23" fill="" p-id="996"></path><path d="M761.8 663.8l-10.6-17.6c4.5-2.7 7.5-7.4 11.1-12.8 1.7-2.6 3.4-5.2 5.3-7.7l6.6 5 0.1-0.1 6.8-7.7-6.8 7.7 8.1-6.5 7.5 6.3-5.9 7.8c-1.6 2.1-3 4.3-4.4 6.5-4.4 6.5-9.2 14-17.8 19.1z" fill="#7F0518" p-id="997"></path><path d="M802.5 830.4c-6.3 19.4-25.1 30.6-42 25.1l-289.7-94.8c-16.8-5.5-25.4-25.7-19-45l145.3-443.9c6.3-19.4 25.1-30.6 42-25.1l289.7 94.8c16.8 5.5 25.4 25.7 19 45L802.5 830.4z" fill="#FF6A48" p-id="998"></path><path d="M769.4 867.1c-4.1 0-8.1-0.6-12.1-1.9l-289.7-94.8c-11-3.6-19.7-11.8-24.5-23.1-4.5-10.8-4.9-23.2-1.1-34.9l145.3-443.9c3.8-11.7 11.5-21.5 21.5-27.5 10.5-6.3 22.4-7.8 33.4-4.2l289.7 94.8c22.2 7.3 33.7 33.3 25.6 58l-145.3 444c-3.8 11.7-11.5 21.5-21.5 27.5-6.7 4-14 6-21.3 6zM630.2 255.5c-3.6 0-7.3 1.1-10.8 3.2-5.8 3.5-10.3 9.2-12.5 16.2L461.6 718.8c-2.3 7-2.1 14.3 0.5 20.5 2.4 5.7 6.7 9.8 11.9 11.6l289.7 94.8c5.3 1.8 11.1 0.9 16.5-2.3 5.8-3.5 10.3-9.2 12.6-16.2L938 383.3c4.6-13.9-1-28.4-12.5-32.1l-289.7-94.8c-1.8-0.6-3.7-0.9-5.6-0.9z m172.3 574.9h0.3-0.3z" fill="#7F0518" p-id="999"></path><path d="M597 272.1l124.9 211.5 225.7-96.7" fill="#FF6A48" p-id="1000"></path><path d="M721.9 493.9c-3.5 0-6.9-1.8-8.8-5l-125-211.6c-2.9-4.9-1.3-11.2 3.6-14.1 4.9-2.9 11.2-1.3 14.1 3.6l120.3 203.7 217.5-93.2c5.2-2.2 11.2 0.2 13.5 5.4 2.2 5.2-0.2 11.2-5.4 13.5L725.9 493c-1.3 0.6-2.7 0.9-4 0.9z" fill="#7F0518" p-id="1001"></path><path d="M655.7 685.7c-76.1-24.9-154.9-7.6-206.3 38.5-3.1 15.5 5.8 31.3 21.4 36.4l289.7 94.8c15.6 5.1 32.1-2.4 38.8-16.7-14.2-67.6-67.5-128-143.6-153z" fill="#FFC831" p-id="1002"></path><path d="M770.5 867.3c-4.4 0-8.8-0.7-13.1-2.1l-289.7-94.8c-20.3-6.6-32.4-27.4-28.3-48.2l0.7-3.4 2.6-2.3c56.1-50.3 139-65.8 216.4-40.6 77.3 25.3 135 86.9 150.5 160.6l0.7 3.4-1.4 3.1c-7.3 15.2-22.5 24.3-38.4 24.3zM459.1 729.4c-0.4 9.5 5.6 18.4 14.9 21.5l289.7 94.8c9.4 3.1 19.5-0.5 24.8-8.5-15.1-65-66.9-119.1-136-141.7-69.1-22.6-142.8-9.6-193.4 33.9z" fill="#7F0518" p-id="1003"></path><path d="M758.9 505.1c-7.2 22-30.8 33.9-52.8 26.8-22-7.2-34-30.8-26.8-52.8 7.2-22 30.8-33.9 52.8-26.8 22 7.2 34 30.8 26.8 52.8z" fill="#FFC831" p-id="1004"></path><path d="M719.1 544.2c-5.5 0-10.9-0.9-16.3-2.6-13.2-4.3-24-13.5-30.3-26-6.3-12.4-7.4-26.5-3-39.8 8.9-27.3 38.4-42.2 65.8-33.3 13.2 4.3 24 13.5 30.2 26 6.3 12.4 7.4 26.5 3 39.7-4.3 13.2-13.5 24-26 30.3-7.3 3.8-15.3 5.7-23.4 5.7z m0-83.8c-4.9 0-9.8 1.2-14.3 3.4-7.5 3.8-13.1 10.3-15.7 18.4-2.6 8-2 16.6 1.8 24.1s10.3 13.1 18.4 15.7c8 2.6 16.6 2 24.1-1.8s13.1-10.3 15.7-18.3c2.6-8 2-16.6-1.8-24.1S737 464.7 729 462.1c-3.3-1.1-6.6-1.7-9.9-1.7z" fill="#7F0518" p-id="1005"></path><path d="M560.8 810.5c0 26.9-18.9 48.6-42.3 48.6H116.7c-23.4 0-42.3-21.8-42.3-48.6V194.7c0-26.9 18.9-48.6 42.3-48.6h401.9c23.4 0 42.3 21.8 42.3 48.6v615.8z" fill="#FF6A48" p-id="1006"></path><path d="M518.5 869.4H116.7c-29 0-52.6-26.4-52.6-58.9V194.7c0-32.5 23.6-58.9 52.6-58.9h401.9c29 0 52.6 26.4 52.6 58.9v615.8c-0.1 32.5-23.7 58.9-52.7 58.9zM116.7 156.3c-17.7 0-32 17.2-32 38.4v615.8c0 21.2 14.4 38.4 32 38.4h401.9c17.7 0 32-17.2 32-38.4V194.7c0-21.2-14.4-38.4-32-38.4H116.7z" fill="#7F0518" p-id="1007"></path><path d="M74.4 195.2L317.6 409l243.2-213.8" fill="#FF6A48" p-id="1008"></path><path d="M317.6 419.3c-2.4 0-4.8-0.9-6.8-2.6L67.6 202.9c-4.3-3.7-4.7-10.2-0.9-14.5 3.8-4.3 10.2-4.7 14.5-0.9l236.5 207.8 236.5-207.8c4.2-3.7 10.7-3.3 14.5 0.9 3.7 4.3 3.3 10.7-0.9 14.5L324.4 416.7c-2 1.7-4.4 2.6-6.8 2.6z" fill="#7F0518" p-id="1009"></path><path d="M317.6 689.5c-105.6 0-197.2 53.9-242.7 132.8 2.5 20.7 20.2 36.9 41.8 36.9h401.9c21.6 0 39.3-16.1 41.8-36.9-45.6-78.9-137.2-132.8-242.8-132.8z" fill="#FFC831" p-id="1010"></path><path d="M518.5 869.4H116.7c-26.5 0-48.8-19.7-52-45.9l-0.4-3.4 1.7-3c49.1-85.1 145.5-137.9 251.6-137.9S520.1 732 569.2 817.1l1.7 3-0.4 3.4c-3.2 26.2-25.5 45.9-52 45.9zM85.6 824.2c3.3 14.3 16.1 24.6 31.1 24.6h401.9c15 0 27.8-10.4 31.1-24.6-46-76.9-134.5-124.5-232-124.5S131.6 747.3 85.6 824.2z" fill="#7F0518" p-id="1011"></path><path d="M372.8 420.7c0 30.5-24.7 55.2-55.2 55.2-30.5 0-55.2-24.7-55.2-55.2 0-30.5 24.7-55.2 55.2-55.2 30.5 0.1 55.2 24.8 55.2 55.2z" fill="#FFC831" p-id="1012"></path><path d="M317.6 486.2c-36.1 0-65.4-29.4-65.4-65.4s29.3-65.4 65.4-65.4 65.4 29.3 65.4 65.4-29.3 65.4-65.4 65.4z m0-110.4c-24.8 0-44.9 20.1-44.9 44.9 0 24.8 20.1 44.9 44.9 44.9 24.8 0 44.9-20.2 44.9-44.9s-20.1-44.9-44.9-44.9z" fill="#7F0518" p-id="1013"></path></svg>